<svg width="24" height="24" viewBox="0 0 24 24" fill="none" xmlns="http://www.w3.org/2000/svg">
<path d="M17.2405 18.6547C17.5334 18.9476 18.0083 18.9476 18.3012 18.6547C18.594 18.3618 18.594 17.8869 18.3012 17.594L12.6443 11.9372L18.3011 6.28033C18.594 5.98744 18.594 5.51256 18.3011 5.21967C18.0083 4.92678 17.5334 4.92678 17.2405 5.21967L11.5836 10.8765L6.28034 5.57322C5.98744 5.28033 5.51257 5.28033 5.21968 5.57322C4.92678 5.86612 4.92678 6.34099 5.21968 6.63388L10.523 11.9372L5.21967 17.2405C4.92678 17.5334 4.92678 18.0083 5.21967 18.3011C5.51256 18.594 5.98744 18.594 6.28033 18.3011L11.5836 12.9978L17.2405 18.6547Z" fill="#171717"/>
</svg>
