<svg width="24" height="24" viewBox="0 0 24 24" fill="none" xmlns="http://www.w3.org/2000/svg">
<path fill-rule="evenodd" clip-rule="evenodd" d="M1.60603 8.08087C2.11366 7.86331 2.70154 8.09846 2.9191 8.60609L1.99995 9.00001C2.9191 8.60609 2.91924 8.60642 2.9191 8.60609L2.91858 8.60489C2.9183 8.60424 2.91851 8.60472 2.91858 8.60489L2.9225 8.61376C2.92651 8.62277 2.93339 8.63809 2.94319 8.65929C2.96278 8.70171 2.99397 8.76759 3.03696 8.85358C3.12302 9.0257 3.25594 9.27747 3.43737 9.58228C3.80137 10.1938 4.35439 11.0083 5.10775 11.8196C5.28532 12.0108 5.47324 12.2011 5.67173 12.3881C5.68003 12.3956 5.68823 12.4033 5.69633 12.4112C7.18102 13.8014 9.25227 15 12 15C13.2089 15 14.2783 14.7692 15.2209 14.3982C16.4469 13.9156 17.4745 13.1891 18.3156 12.3997C19.2652 11.5084 19.9627 10.5501 20.4232 9.81101C20.6526 9.44292 20.8207 9.13319 20.9299 8.9191C20.9844 8.81217 21.0241 8.72944 21.0491 8.67562C21.0617 8.64872 21.0706 8.62908 21.0758 8.61729L21.0808 8.60609C21.2985 8.09874 21.8864 7.86337 22.3939 8.08087C22.9015 8.29842 23.1367 8.8863 22.9191 9.39393L22 9.00001C22.9191 9.39393 22.9192 9.3937 22.9191 9.39393L22.9169 9.39895L22.9134 9.40718L22.9019 9.43302C22.8924 9.45435 22.879 9.48378 22.8618 9.52072C22.8274 9.59458 22.7774 9.69856 22.7115 9.82775C22.5799 10.0859 22.384 10.4461 22.1206 10.8687C21.718 11.5148 21.152 12.3162 20.4096 13.1243L21.2071 13.9217C21.5976 14.3123 21.5976 14.9454 21.2071 15.336C20.8165 15.7265 20.1834 15.7265 19.7928 15.336L18.9527 14.4958C18.3884 14.9515 17.757 15.3814 17.0558 15.7522L17.8381 16.9546C18.1393 17.4175 18.0083 18.037 17.5453 18.3382C17.0824 18.6394 16.463 18.5083 16.1618 18.0454L15.1763 16.5309C14.4973 16.739 13.772 16.8865 13 16.9557V18.5C13 19.0523 12.5522 19.5 12 19.5C11.4477 19.5 11 19.0523 11 18.5V16.9558C10.2253 16.8866 9.50014 16.7388 8.82334 16.5313L7.83814 18.0454C7.53693 18.5083 6.91748 18.6394 6.45457 18.3382C5.99165 18.037 5.86056 17.4175 6.16177 16.9546L6.94417 15.7522C6.24405 15.3816 5.61245 14.9518 5.04746 14.4956L4.20706 15.336C3.81654 15.7265 3.18337 15.7265 2.79285 15.336C2.40232 14.9454 2.40232 14.3123 2.79285 13.9217L3.59029 13.1243C2.74529 12.2045 2.12772 11.2922 1.71879 10.6052C1.5096 10.2538 1.35345 9.9587 1.2481 9.74801C1.19539 9.64259 1.15529 9.55808 1.12752 9.49796C1.11363 9.46789 1.10282 9.4439 1.09505 9.42643L1.08566 9.40514L1.08267 9.39826L1.0816 9.39577L1.08117 9.39477C1.08098 9.39434 1.08081 9.39393 1.99995 9.00001L1.08117 9.39477C0.863613 8.88714 1.0984 8.29842 1.60603 8.08087Z" fill="#171717"/>
</svg>
