<svg width="24" height="24" viewBox="0 0 24 24" fill="none" xmlns="http://www.w3.org/2000/svg">
<path d="M8.27484 21.3754C9.11009 22.2106 10.4635 22.2056 11.2937 21.3754L18.9365 13.7326C19.7717 12.8974 19.7717 11.549 18.9365 10.7137L13.2862 5.06345C12.4509 4.2282 11.1026 4.2282 10.2673 5.06345L8.09373 7.23703L11.2183 10.3616L10.212 11.3678L7.0874 8.24331L5.80946 9.5213L8.93399 12.6458L7.92771 13.6521L4.80318 10.5276L2.62454 12.7062C1.79435 13.5364 1.78929 14.8899 2.62454 15.7251L8.27484 21.3754Z" fill="#171717"/>
<path d="M17.9405 2.69373L16.9291 3.70502C16.0486 3.21695 14.9417 3.2874 14.1216 3.90627C14.1819 3.94651 20.0537 9.81824 20.0989 9.88364C20.7178 9.06352 20.7832 7.95155 20.2952 7.07109L21.3065 6.05975C22.2323 5.13399 22.2323 3.62454 21.3065 2.69874C20.3757 1.76792 18.8662 1.76792 17.9405 2.69373Z" fill="#171717"/>
</svg>
